<svg width="270" height="243" viewBox="0 0 270 243" fill="none" xmlns="http://www.w3.org/2000/svg">
<g id="blobs">
<path id="Vector" opacity="0.6" fill-rule="evenodd" clip-rule="evenodd" d="M114.759 46.2112C139.943 40.5078 170.408 25.7374 189.223 43.422C208.03 61.0992 196.286 92.6188 191.014 117.885C187.052 136.872 174.1 150.386 163.511 166.637C147.64 190.993 143.738 232.601 114.759 234.91C86.1683 237.188 77.6369 195.568 57.5669 175.078C37.9132 155.013 -2.61248 145.837 0.132746 117.885C2.92237 89.4807 43.5964 86.0535 67.7961 70.9219C83.3881 61.1725 96.8245 50.273 114.759 46.2112Z" fill="#EA765D"/>
<path id="Vector_2" opacity="0.6" fill-rule="evenodd" clip-rule="evenodd" d="M204.327 65.0653C221.368 80.0058 227.684 102.74 227.468 125.402C227.219 151.498 223.882 179.947 203.082 195.708C180.881 212.532 149.942 214.065 124.063 203.76C99.7253 194.069 86.6909 170.005 77.2067 145.586C67.3827 120.291 55.572 90.3905 71.4998 68.4219C86.8815 47.2065 118.353 53.3644 144.549 52.7024C165.95 52.1616 188.23 50.9523 204.327 65.0653Z" fill="#7A8FCD"/>
<path id="Vector_3" opacity="0.6" fill-rule="evenodd" clip-rule="evenodd" d="M110.472 63.1048C139.599 61.9636 170.251 70.0249 187.96 93.1795C205.34 115.905 204.312 147.154 195.589 174.401C187.799 198.733 167.907 215.371 145.134 226.951C121.541 238.948 94.2838 249.59 70.4786 238.021C46.7399 226.483 38.8956 198.382 33.2873 172.591C27.7767 147.248 25.2985 120.164 40.2417 98.9671C56.1761 76.3643 82.8381 64.1875 110.472 63.1048Z" fill="#DDB85C"/>
</g>
</svg>
