<svg width="147" height="34" viewBox="0 0 147 34" fill="none" xmlns="http://www.w3.org/2000/svg">
<g clip-path="url(#clip0_41_2349)">
<path d="M6.23158 2C4.51996 2 3.25338 3.88015 3.31009 5.91912C3.36458 7.87794 3.29381 10.4151 2.7849 12.4841C2.27447 14.5591 1.4111 15.8735 0.000976562 16.0424V17.9476C1.4111 18.1165 2.27447 19.4309 2.7849 21.506C3.29381 23.575 3.36458 26.1119 3.31009 28.0709C3.25338 30.1096 4.51996 31.99 6.23182 31.99H23.7703C25.482 31.99 26.7482 30.1099 26.6915 28.0709C26.6371 26.1121 26.7078 23.575 27.2167 21.506C27.7275 19.431 28.5885 18.1163 29.9986 17.9476V16.0424C28.5885 15.8735 27.7275 14.5591 27.2168 12.4841C26.7078 10.4154 26.6371 7.87809 26.6915 5.91912C26.7482 3.88044 25.482 2 23.7703 2H6.23135H6.23158ZM20.3384 20.4607C20.3384 23.2684 18.6698 24.971 15.9007 24.971H11.1866C11.0518 24.971 10.9225 24.9037 10.8271 24.7841C10.7318 24.6644 10.6783 24.5021 10.6783 24.3329V9.65706C10.6783 9.57325 10.6914 9.49026 10.7169 9.41283C10.7425 9.33539 10.7799 9.26504 10.8271 9.20577C10.8744 9.1465 10.9304 9.09949 10.9921 9.06741C11.0538 9.03533 11.1199 9.01882 11.1867 9.01882H15.8737C18.1827 9.01882 19.6981 10.5887 19.6981 12.9987C19.6981 14.6903 18.6786 16.2047 17.3799 16.4699V16.5582C19.148 16.8016 20.3384 18.3382 20.3384 20.4607ZM15.3865 11.0416H12.6988V15.8063H14.9627C16.7126 15.8063 17.6777 14.9219 17.6777 13.341C17.6777 11.8597 16.8478 11.0416 15.3866 11.0416H15.3865ZM12.6988 17.6969V22.9476H15.4855C17.3074 22.9476 18.2727 22.0301 18.2727 20.3057C18.2727 18.581 17.2806 17.6966 15.3683 17.6966H12.6988V17.6969Z" fill="#7E13F8"/>
</g>
<path d="M47.2969 16.1719C48.4323 16.6927 49.2292 17.3333 49.6875 18.0938C50.1458 18.8542 50.375 19.849 50.375 21.0781C50.375 22.4635 49.875 23.6302 48.875 24.5781C47.8854 25.526 46.6667 26 45.2188 26H38.2344V6.48438H44.2188C45.9062 6.48438 47.2865 6.95312 48.3594 7.89062C49.4427 8.81771 49.9844 10 49.9844 11.4375C49.9844 12.6042 49.7708 13.5521 49.3438 14.2812C48.9167 15.0104 48.2344 15.6406 47.2969 16.1719ZM42.4688 14.7344H43.3281C44.0365 14.7344 44.599 14.5104 45.0156 14.0625C45.4427 13.6042 45.6562 12.9948 45.6562 12.2344C45.6562 10.4844 44.776 9.60938 43.0156 9.60938H42.4688V14.7344ZM42.4688 22.8281L43.6875 22.7969C44.4062 22.7865 44.9635 22.5625 45.3594 22.125C45.7552 21.6875 45.9531 21.0677 45.9531 20.2656C45.9531 18.5469 45.0781 17.6875 43.3281 17.6875H42.4688V22.8281ZM52.7188 19.4375C52.7188 17.1042 53.1979 15.3177 54.1562 14.0781C55.1146 12.8281 56.4792 12.2031 58.25 12.2031C60.0417 12.2031 61.4062 12.8125 62.3438 14.0312C63.2917 15.25 63.7656 17.0208 63.7656 19.3438C63.7656 21.6146 63.2969 23.3594 62.3594 24.5781C61.4323 25.7865 60.099 26.3906 58.3594 26.3906C56.526 26.3906 55.125 25.7969 54.1562 24.6094C53.1979 23.4115 52.7188 21.6875 52.7188 19.4375ZM59.8594 19.375C59.8594 17.9062 59.7604 16.875 59.5625 16.2812C59.3646 15.6771 58.9375 15.375 58.2812 15.375C57.6771 15.375 57.25 15.6562 57 16.2188C56.75 16.7812 56.625 17.6927 56.625 18.9531C56.625 20.526 56.7292 21.6354 56.9375 22.2812C57.1458 22.9271 57.5833 23.25 58.25 23.25C58.8854 23.25 59.3125 22.9635 59.5312 22.3906C59.75 21.8073 59.8594 20.8021 59.8594 19.375ZM66.0625 19.4375C66.0625 17.1042 66.5417 15.3177 67.5 14.0781C68.4583 12.8281 69.8229 12.2031 71.5938 12.2031C73.3854 12.2031 74.75 12.8125 75.6875 14.0312C76.6354 15.25 77.1094 17.0208 77.1094 19.3438C77.1094 21.6146 76.6406 23.3594 75.7031 24.5781C74.776 25.7865 73.4427 26.3906 71.7031 26.3906C69.8698 26.3906 68.4688 25.7969 67.5 24.6094C66.5417 23.4115 66.0625 21.6875 66.0625 19.4375ZM73.2031 19.375C73.2031 17.9062 73.1042 16.875 72.9062 16.2812C72.7083 15.6771 72.2812 15.375 71.625 15.375C71.0208 15.375 70.5938 15.6562 70.3438 16.2188C70.0938 16.7812 69.9688 17.6927 69.9688 18.9531C69.9688 20.526 70.0729 21.6354 70.2812 22.2812C70.4896 22.9271 70.9271 23.25 71.5938 23.25C72.2292 23.25 72.6562 22.9635 72.875 22.3906C73.0938 21.8073 73.2031 20.8021 73.2031 19.375ZM87.5625 15.625H85.2031V26H81.3594V15.6562H78.9531V12.5938H81.3594V8.78125H85.2031V12.5938H87.5625V15.625ZM96.6719 16.2969C95.6302 15.474 94.7865 15.0625 94.1406 15.0625C93.4115 15.0625 93.0469 15.349 93.0469 15.9219C93.0469 16.2969 93.6458 16.8021 94.8438 17.4375C96.0417 18.0625 96.9167 18.7552 97.4688 19.5156C98.0208 20.276 98.2969 21.1875 98.2969 22.25C98.2969 23.4479 97.8802 24.4375 97.0469 25.2188C96.2135 26 95.151 26.3906 93.8594 26.3906C92.9427 26.3906 92.1458 26.2656 91.4688 26.0156C90.7917 25.776 90.0625 25.3854 89.2812 24.8438L90.9062 22.0625C91 22.1146 91.1198 22.1979 91.2656 22.3125C92.2135 23.0625 92.9688 23.4375 93.5312 23.4375C93.875 23.4375 94.151 23.3438 94.3594 23.1562C94.5781 22.9583 94.6875 22.7135 94.6875 22.4219C94.6875 22.1615 94.5208 21.8854 94.1875 21.5938C93.8542 21.2917 93.1979 20.8438 92.2188 20.25C91.2396 19.6562 90.5312 19.0729 90.0938 18.5C89.6562 17.9167 89.4375 17.2188 89.4375 16.4062C89.4375 15.1771 89.849 14.1719 90.6719 13.3906C91.5052 12.599 92.5781 12.2031 93.8906 12.2031C95.349 12.2031 96.7656 12.6979 98.1406 13.6875L96.6719 16.2969ZM108.625 15.625H106.266V26H102.422V15.6562H100.016V12.5938H102.422V8.78125H106.266V12.5938H108.625V15.625ZM118.828 16.0469C118.193 15.9219 117.745 15.8594 117.484 15.8594C115.682 15.8594 114.781 16.8073 114.781 18.7031V26H110.953V12.5938H114.531V15.7656H114.594C115.188 13.4219 116.599 12.224 118.828 12.1719V16.0469ZM131.406 26H127.609V23.7344H127.547C126.922 25.5052 125.875 26.3906 124.406 26.3906C123.365 26.3906 122.453 25.8854 121.672 24.875C120.891 23.8646 120.5 22.0521 120.5 19.4375C120.5 14.6146 121.833 12.2031 124.5 12.2031C125.948 12.2031 126.953 13.1302 127.516 14.9844H127.578V12.5938H131.406V26ZM125.812 15.5625C124.896 15.5625 124.438 16.7031 124.438 18.9844C124.438 20.349 124.562 21.3438 124.812 21.9688C125.062 22.5833 125.479 22.8906 126.062 22.8906C126.615 22.8906 127.01 22.6094 127.25 22.0469C127.49 21.4844 127.609 20.5833 127.609 19.3438C127.609 18.0312 127.474 17.0729 127.203 16.4688C126.932 15.8646 126.49 15.5625 125.875 15.5625H125.812ZM138.641 14.7031C139.38 13.0365 140.391 12.2031 141.672 12.2031C142.776 12.2031 143.708 12.7135 144.469 13.7344C145.229 14.7552 145.609 16.5729 145.609 19.1875C145.609 21.9792 145.214 23.8802 144.422 24.8906C143.63 25.8906 142.693 26.3906 141.609 26.3906C140.318 26.3906 139.318 25.5365 138.609 23.8281L138.641 23.7344H138.578V31.9219H134.703V12.5938H138.578V14.7031H138.641ZM140.234 22.9531C140.786 22.9531 141.167 22.6615 141.375 22.0781C141.594 21.4844 141.703 20.5 141.703 19.125C141.703 16.8438 141.203 15.7031 140.203 15.7031C139.62 15.7031 139.203 15.9896 138.953 16.5625C138.703 17.1354 138.578 18.0625 138.578 19.3438C138.578 21.75 139.13 22.9531 140.234 22.9531Z" fill="white"/>
<defs>
<clipPath id="clip0_41_2349">
<rect width="30" height="30" fill="white" transform="translate(0 2)"/>
</clipPath>
</defs>
</svg>
