<svg width="73" height="34" viewBox="0 0 73 34" fill="none" xmlns="http://www.w3.org/2000/svg">
<path d="M5.53336 27.5009L3.42773 3.875H26.5727L24.4643 27.4972L14.9862 30.125L5.53336 27.5009Z" fill="#1572B6"/>
<path d="M15 28.1169L22.6594 25.9934L24.4612 5.80719H15V28.1169Z" fill="#33A9DC"/>
<path d="M15 14.3666H18.8344L19.0987 11.3994H15V8.50159H22.2656L22.1963 9.27877L21.4847 17.2644H15V14.3666Z" fill="white"/>
<path d="M15.0179 21.8919L15.0048 21.8956L11.7779 21.0238L11.5717 18.7128H8.6626L9.06854 23.2625L15.0038 24.9106L15.0179 24.9069V21.8919Z" fill="#EBEBEB"/>
<path d="M18.5876 17.1415L18.2389 21.0219L15.0073 21.8937V24.9087L20.9473 23.2625L20.9914 22.7731L21.4948 17.1415H18.5876Z" fill="white"/>
<path d="M15.0105 8.50159V11.3994H8.01115L7.95303 10.7478L7.82084 9.27877L7.75146 8.50159H15.0105ZM15.0002 14.3666V17.2644H11.8137L11.7555 16.6128L11.6243 15.1438L11.5549 14.3666H15.0002Z" fill="#EBEBEB"/>
<path d="M47.3438 25.6875C46.2708 26.1562 45.0781 26.3906 43.7656 26.3906C41.4115 26.3906 39.4427 25.5312 37.8594 23.8125C36.2865 22.0938 35.5 19.5885 35.5 16.2969C35.5 12.901 36.2812 10.349 37.8438 8.64062C39.4062 6.92188 41.2292 6.0625 43.3125 6.0625C44.5625 6.0625 45.8958 6.38542 47.3125 7.03125V11.125C46.2083 10.5625 45.4896 10.2448 45.1562 10.1719C44.8333 10.099 44.4844 10.0625 44.1094 10.0625C43.0052 10.0625 42.0365 10.5208 41.2031 11.4375C40.3698 12.3542 39.9531 13.9323 39.9531 16.1719C39.9531 18.5156 40.3542 20.1406 41.1562 21.0469C41.9688 21.9427 42.974 22.3906 44.1719 22.3906C45.151 22.3906 46.2083 22.0052 47.3438 21.2344V25.6875ZM58.6562 11.9844C57.5417 10.6823 56.474 10.0312 55.4531 10.0312C54.9948 10.0312 54.5833 10.1823 54.2188 10.4844C53.8646 10.7865 53.6875 11.125 53.6875 11.5C53.6875 12.1771 54.2552 12.9792 55.3906 13.9062C56.5781 14.8542 57.4219 15.6042 57.9219 16.1562C58.4219 16.6979 58.8229 17.3385 59.125 18.0781C59.4271 18.8177 59.5781 19.625 59.5781 20.5C59.5781 22.2188 59.026 23.6302 57.9219 24.7344C56.8281 25.8385 55.4167 26.3906 53.6875 26.3906C52.2708 26.3906 50.8854 25.8854 49.5312 24.875V20.2656C50.8333 21.6823 52.1354 22.3906 53.4375 22.3906C54.0208 22.3906 54.5052 22.2292 54.8906 21.9062C55.2865 21.5833 55.4844 21.1875 55.4844 20.7188C55.4844 20.0208 54.9844 19.2448 53.9844 18.3906C52.3906 17.0156 51.3438 15.9948 50.8438 15.3281C50.3542 14.651 49.9844 13.974 49.7344 13.2969C49.4948 12.6094 49.375 11.9167 49.375 11.2188C49.375 9.71875 49.901 8.47917 50.9531 7.5C52.0052 6.52083 53.3438 6.03125 54.9688 6.03125C56.1979 6.03125 57.4271 6.38542 58.6562 7.09375V11.9844ZM70.9688 11.9844C69.8542 10.6823 68.7865 10.0312 67.7656 10.0312C67.3073 10.0312 66.8958 10.1823 66.5312 10.4844C66.1771 10.7865 66 11.125 66 11.5C66 12.1771 66.5677 12.9792 67.7031 13.9062C68.8906 14.8542 69.7344 15.6042 70.2344 16.1562C70.7344 16.6979 71.1354 17.3385 71.4375 18.0781C71.7396 18.8177 71.8906 19.625 71.8906 20.5C71.8906 22.2188 71.3385 23.6302 70.2344 24.7344C69.1406 25.8385 67.7292 26.3906 66 26.3906C64.5833 26.3906 63.1979 25.8854 61.8438 24.875V20.2656C63.1458 21.6823 64.4479 22.3906 65.75 22.3906C66.3333 22.3906 66.8177 22.2292 67.2031 21.9062C67.599 21.5833 67.7969 21.1875 67.7969 20.7188C67.7969 20.0208 67.2969 19.2448 66.2969 18.3906C64.7031 17.0156 63.6562 15.9948 63.1562 15.3281C62.6667 14.651 62.2969 13.974 62.0469 13.2969C61.8073 12.6094 61.6875 11.9167 61.6875 11.2188C61.6875 9.71875 62.2135 8.47917 63.2656 7.5C64.3177 6.52083 65.6562 6.03125 67.2812 6.03125C68.5104 6.03125 69.7396 6.38542 70.9688 7.09375V11.9844Z" fill="white"/>
</svg>
