<svg width="69" height="34" viewBox="0 0 69 34" fill="none" xmlns="http://www.w3.org/2000/svg">
<g clip-path="url(#clip0_41_2341)">
<path d="M29.4342 15.6636L16.3359 2.566C15.5821 1.81166 14.3586 1.81166 13.6038 2.566L10.8839 5.28592L14.3343 8.73627C15.1361 8.46533 16.0555 8.64709 16.6946 9.28623C17.3368 9.92947 17.5173 10.8568 17.2398 11.6612L20.565 14.9865C21.3695 14.7093 22.2977 14.8886 22.9403 15.5322C23.8383 16.4299 23.8383 17.8847 22.9403 18.783C22.042 19.6813 20.5871 19.6813 19.6884 18.783C19.013 18.1068 18.8461 17.1148 19.188 16.2827L16.087 13.1817L16.0867 21.3422C16.3115 21.4534 16.5168 21.6002 16.6946 21.777C17.5927 22.6747 17.5927 24.1297 16.6946 25.0286C15.7964 25.9265 14.3408 25.9265 13.4439 25.0286C12.5459 24.1297 12.5459 22.6748 13.4439 21.7771C13.6591 21.5618 13.9148 21.3913 14.1963 21.2754V13.0388C13.9144 12.9237 13.6585 12.7531 13.4439 12.5371C12.7635 11.8577 12.5999 10.8594 12.9485 10.0239L9.54727 6.62232L0.566016 15.603C-0.188672 16.358 -0.188672 17.5816 0.566016 18.336L13.6645 31.4339C14.4186 32.1883 15.6418 32.1883 16.3969 31.4339L29.4341 18.3969C30.1886 17.6422 30.1886 16.4179 29.4341 15.6636" fill="#DE4C36"/>
</g>
<path d="M49.7188 18.125C49.7188 18.9583 49.5208 20.0312 49.125 21.3438C48.7292 22.6458 47.9635 23.8125 46.8281 24.8438C45.7031 25.875 44.3698 26.3906 42.8281 26.3906C38.0469 26.3906 35.6562 22.9531 35.6562 16.0781C35.6562 12.8281 36.276 10.3438 37.5156 8.625C38.7656 6.89583 40.5365 6.03125 42.8281 6.03125C46.1302 6.03125 48.125 7.65104 48.8125 10.8906L45.1094 12.5C45.0365 10.75 44.2448 9.875 42.7344 9.875C42.0781 9.875 41.5417 10.0833 41.125 10.5C40.7188 10.9062 40.4531 11.474 40.3281 12.2031C40.2031 12.9323 40.1406 14.1823 40.1406 15.9531C40.1406 18.0365 40.2083 19.4688 40.3438 20.25C40.4792 21.0208 40.7552 21.6042 41.1719 22C41.5885 22.3854 42.1302 22.5781 42.7969 22.5781C44.3594 22.5781 45.1927 21.2865 45.2969 18.7031H42.7031V14.9219H49.7188V18.125ZM52.2812 8.14062C52.2812 7.52604 52.5052 6.99479 52.9531 6.54688C53.401 6.09896 53.9375 5.875 54.5625 5.875C55.1875 5.875 55.7188 6.09896 56.1562 6.54688C56.6042 6.98438 56.8281 7.51562 56.8281 8.14062C56.8281 8.76562 56.6042 9.30208 56.1562 9.75C55.7188 10.1979 55.1875 10.4219 54.5625 10.4219C53.9375 10.4219 53.401 10.1979 52.9531 9.75C52.5052 9.30208 52.2812 8.76562 52.2812 8.14062ZM52.7031 12.5938H56.5156V26H52.7031V12.5938ZM67.5625 15.625H65.2031V26H61.3594V15.6562H58.9531V12.5938H61.3594V8.78125H65.2031V12.5938H67.5625V15.625Z" fill="white"/>
<defs>
<clipPath id="clip0_41_2341">
<rect width="30" height="30" fill="white" transform="translate(0 2)"/>
</clipPath>
</defs>
</svg>
