<svg width="36" height="37" viewBox="0 0 36 37" fill="none" xmlns="http://www.w3.org/2000/svg">
<path d="M30.198 27.852L32 4.28296C32 4.14796 31.992 4.01996 31.979 3.90996C31.982 3.87696 32 3.83496 32 3.79996C32 1.99596 25.731 0.532959 18 0.532959C10.268 0.532959 4 1.99496 4 3.79996C4 3.83496 4.017 3.86796 4.022 3.90196C4.008 4.01196 4 4.13196 4 4.26696L5.802 27.852C2.298 28.762 0 30.043 0 31.467C0 34.229 8.611 36.467 18 36.467C27.389 36.467 36 34.229 36 31.467C36 30.043 33.702 28.762 30.198 27.852Z" fill="#31373D"/>
<path d="M17.5359 7.06198C12.6459 7.06198 8.93394 6.16598 6.68394 5.41598C6.15994 5.24098 5.87594 4.67498 6.05094 4.15098C6.22594 3.62698 6.78994 3.34298 7.31594 3.51798C10.2049 4.48098 18.0779 6.40898 28.7369 3.50198C29.2659 3.35998 29.8189 3.66998 29.9639 4.20398C30.1099 4.73698 29.7949 5.28698 29.2619 5.43198C24.8559 6.63398 20.9149 7.06198 17.5359 7.06198Z" fill="#66757F"/>
<path d="M30.1979 27.852L30.6439 22.023C22.9389 24.18 13.0589 24.23 5.32788 21.646L5.72088 26.788C5.78988 27.092 5.83388 27.438 5.83388 27.864C5.83388 29.614 7.12288 30.692 8.60488 31.26C13.0629 32.968 22.5629 32.906 27.4119 31.409C28.8789 30.956 30.1879 29.676 30.1879 28.218C30.1879 28.099 30.2029 27.977 30.2119 27.857L30.1979 27.852Z" fill="#744EAA"/>
</svg>
