<svg width="110" height="34" viewBox="0 0 110 34" fill="none" xmlns="http://www.w3.org/2000/svg">
<path d="M5.53332 27.5009L3.42676 3.875H26.5736L24.4643 27.4972L14.9861 30.125L5.53332 27.5009Z" fill="#E44F26"/>
<path d="M15 28.1169L22.6594 25.9934L24.4612 5.80719H15V28.1169Z" fill="#F1662A"/>
<path d="M15 14.569H11.1656L10.9013 11.6019H15V8.70404H7.73438L7.80375 9.48217L8.51531 17.4669H15V14.569ZM15 22.0944L14.9869 22.0981L11.76 21.2272L11.5538 18.9162H8.64469L9.05063 23.465L14.9869 25.1131L15 25.1094V22.0944Z" fill="#EBEBEB"/>
<path d="M14.9897 14.569V17.4669H18.5579L18.2222 21.2253L14.9897 22.0972V25.1122L20.9307 23.465L20.9738 22.9756L21.6544 15.3472L21.7257 14.569H14.9897ZM14.9897 8.70404V11.6019H21.9891L22.0472 10.9512L22.1794 9.48217L22.2488 8.70404H14.9897Z" fill="white"/>
<path d="M36.0156 6.48438H40.2344V13.9375H44.1719V6.48438H48.4062V26H44.1719V17.75H40.2656V26H36.0156V6.48438ZM62.8594 10.2812H59.0625V26H54.8594V10.3125H50.9844V6.48438H62.8594V10.2812ZM83.375 26H79.375L78.4219 10.0312H78.3594L75.375 26H72.375L69.5469 9.9375H69.4844L68.4062 26H64.375L66.3906 6.48438H71.7031L73.8438 19.3438H73.9062L76.2656 6.48438H81.4844L83.375 26ZM95.2344 26H86.1094V6.48438H90.2969V22.1562H95.2344V26ZM101.891 13.3281C103.953 13.4635 105.484 14.099 106.484 15.2344C107.495 16.3594 108 17.8125 108 19.5938C108 21.6667 107.401 23.3177 106.203 24.5469C105.016 25.776 103.422 26.3906 101.422 26.3906C100.005 26.3906 98.5417 26.0365 97.0312 25.3281L97.6094 21.5469C99.026 22.401 100.198 22.8281 101.125 22.8281C101.99 22.8281 102.677 22.5312 103.188 21.9375C103.708 21.3438 103.969 20.5521 103.969 19.5625C103.969 18.5938 103.62 17.8333 102.922 17.2812C102.224 16.7188 101.25 16.4375 100 16.4375C99.4375 16.4375 98.8333 16.4792 98.1875 16.5625L99.2031 6.45312H107.562V10.0938H102.219L101.891 13.3281Z" fill="white"/>
</svg>
