<svg width="22" height="22" viewBox="0 0 22 22" fill="none" xmlns="http://www.w3.org/2000/svg">
<path d="M10.9999 5.53327C9.91873 5.53327 8.86181 5.85389 7.96282 6.45457C7.06383 7.05526 6.36316 7.90903 5.9494 8.90794C5.53564 9.90684 5.42738 11.006 5.63831 12.0664C5.84924 13.1269 6.36989 14.1009 7.13442 14.8655C7.89895 15.63 8.87301 16.1506 9.93344 16.3616C10.9939 16.5725 12.093 16.4642 13.0919 16.0505C14.0908 15.6367 14.9446 14.936 15.5453 14.0371C16.146 13.1381 16.4666 12.0811 16.4666 10.9999C16.4684 10.2816 16.3282 9.5699 16.0541 8.90586C15.78 8.24182 15.3774 7.63848 14.8694 7.1305C14.3614 6.62252 13.7581 6.21992 13.094 5.94582C12.43 5.67171 11.7183 5.53151 10.9999 5.53327ZM10.9999 14.5599C10.2958 14.5599 9.60755 14.3511 9.02211 13.96C8.43667 13.5688 7.98037 13.0128 7.71093 12.3623C7.44148 11.7118 7.37098 10.996 7.50834 10.3054C7.64571 9.61484 7.98476 8.98051 8.48264 8.48264C8.98051 7.98476 9.61484 7.64571 10.3054 7.50834C10.996 7.37098 11.7118 7.44148 12.3623 7.71093C13.0128 7.98037 13.5688 8.43667 13.96 9.02211C14.3511 9.60755 14.5599 10.2958 14.5599 10.9999C14.5599 11.9441 14.1849 12.8496 13.5172 13.5172C12.8496 14.1849 11.9441 14.5599 10.9999 14.5599ZM17.9733 5.3066C17.9733 5.57031 17.8951 5.8281 17.7486 6.04736C17.6021 6.26663 17.3938 6.43753 17.1502 6.53844C16.9065 6.63936 16.6385 6.66576 16.3798 6.61432C16.1212 6.56287 15.8836 6.43588 15.6971 6.24941C15.5107 6.06294 15.3837 5.82537 15.3322 5.56673C15.2808 5.30808 15.3072 5.04 15.4081 4.79636C15.509 4.55273 15.6799 4.34449 15.8992 4.19798C16.1184 4.05147 16.3762 3.97327 16.6399 3.97327C16.9936 3.97327 17.3327 4.11375 17.5827 4.3638C17.8328 4.61384 17.9733 4.95298 17.9733 5.3066ZM21.5866 6.63994C21.6254 4.98237 21.0071 3.37673 19.8666 2.17327C18.6696 1.01819 17.0632 0.385214 15.3999 0.413271C13.6666 0.333271 8.33327 0.333271 6.59994 0.413271C4.94288 0.37739 3.3383 0.995273 2.13327 2.13327C0.992783 3.33673 0.37449 4.94237 0.413271 6.59994C0.333271 8.33327 0.333271 13.6666 0.413271 15.3999C0.37449 17.0575 0.992783 18.6631 2.13327 19.8666C3.3383 21.0046 4.94288 21.6225 6.59994 21.5866C8.35994 21.6933 13.6399 21.6933 15.3999 21.5866C17.0575 21.6254 18.6631 21.0071 19.8666 19.8666C21.0071 18.6631 21.6254 17.0575 21.5866 15.3999C21.6666 13.6666 21.6666 8.33327 21.5866 6.59994V6.63994ZM19.3199 17.3066C19.1389 17.7652 18.8656 18.1817 18.517 18.5303C18.1684 18.8789 17.7519 19.1522 17.2933 19.3333C15.2234 19.7517 13.1074 19.8952 10.9999 19.7599C8.89695 19.8954 6.78528 19.752 4.71994 19.3333C4.26135 19.1522 3.84484 18.8789 3.49622 18.5303C3.1476 18.1817 2.8743 17.7652 2.69327 17.3066C2.13327 15.8933 2.25327 12.5599 2.25327 11.0133C2.25327 9.46661 2.13327 6.11994 2.69327 4.71994C2.8692 4.25683 3.14054 3.83589 3.48969 3.48444C3.83884 3.13299 4.25799 2.8589 4.71994 2.67994C6.78528 2.26124 8.89695 2.11777 10.9999 2.25327C13.1074 2.118 15.2234 2.26146 17.2933 2.67994C17.7519 2.86097 18.1684 3.13427 18.517 3.48289C18.8656 3.83151 19.1389 4.24802 19.3199 4.7066C19.8799 6.11994 19.7466 9.45327 19.7466 10.9999C19.7466 12.5466 19.8799 15.8933 19.3199 17.2933V17.3066Z" fill="white"/>
</svg>
