<svg width="113" height="34" viewBox="0 0 113 34" fill="none" xmlns="http://www.w3.org/2000/svg">
<path d="M28.6001 15.0125C27.3293 16.0742 25.6895 16.5889 24.0399 16.4436C22.3904 16.2983 20.8657 15.505 19.8001 14.2375C17.5751 11.5875 17.9251 7.62501 20.5626 5.43751L21.2001 4.96251C20.1658 6.08393 19.5751 7.54348 19.5383 9.06857C19.5015 10.5937 20.0211 12.08 21.0001 13.25C23.0376 15.675 26.5626 16.15 29.1751 14.4625L28.6001 15.0125ZM26.3751 20.125C25.4339 20.9186 24.3453 21.5185 23.1717 21.8904C21.9981 22.2622 20.7626 22.3986 19.5362 22.2918C18.3098 22.1849 17.1165 21.8369 16.0249 21.2677C14.9333 20.6986 13.9648 19.9194 13.1751 18.975C9.83757 15.0125 10.3626 9.10001 14.3251 5.75001L15.4751 4.95001C13.9902 6.63203 13.1583 8.79115 13.1308 11.0347C13.1032 13.2782 13.8819 15.4571 15.3251 17.175C18.3501 20.75 23.5001 21.5375 27.3876 19.15L26.3751 20.125ZM24.9626 26.225C19.4126 30.8875 11.1251 30.1625 6.46257 24.6C1.81257 19.05 2.53757 10.75 8.08757 6.11251L9.47507 5.12501C5.08757 9.87501 4.81257 17.2875 9.10007 22.4C13.3876 27.5 20.7376 28.525 26.2001 25.0375L24.9626 26.225Z" fill="white"/>
<path d="M43.7969 20.1719C43.7969 22.349 43.3698 23.9323 42.5156 24.9219C41.6719 25.901 40.3073 26.3906 38.4219 26.3906C37.7552 26.3906 37.2031 26.3229 36.7656 26.1875C36.3281 26.0625 35.6927 25.776 34.8594 25.3281V21.0156C34.9531 21.0469 35.1146 21.151 35.3438 21.3281C36.3021 22.0365 37.1458 22.3906 37.875 22.3906C39 22.3906 39.5625 21.5573 39.5625 19.8906V6.48438H43.7969V20.1719ZM61.0312 26.3906L58.875 27.9219L57.1875 25.5469C56.1562 26.1094 55.0469 26.3906 53.8594 26.3906C52.2448 26.3906 50.9167 25.9844 49.875 25.1719C48.8333 24.3594 48.0677 23.2604 47.5781 21.875C47.0885 20.4896 46.8438 18.6562 46.8438 16.375C46.8438 12.7083 47.4844 10.0781 48.7656 8.48438C50.0469 6.89062 51.724 6.09375 53.7969 6.09375C55.3906 6.09375 56.7083 6.49479 57.75 7.29688C58.7917 8.08854 59.5625 9.17188 60.0625 10.5469C60.5729 11.9219 60.8281 13.776 60.8281 16.1094C60.8281 19.6719 60.2656 22.1875 59.1406 23.6562L61.0312 26.3906ZM56.4219 20.4688C56.4635 18.9583 56.4844 17.8385 56.4844 17.1094C56.4844 14.9844 56.4167 13.5208 56.2812 12.7188C56.1562 11.9062 55.8802 11.2656 55.4531 10.7969C55.026 10.3281 54.474 10.0938 53.7969 10.0938C53.0885 10.0938 52.4896 10.4583 52 11.1875C51.5104 11.9062 51.2656 13.474 51.2656 15.8906C51.2656 17.9115 51.3385 19.2865 51.4844 20.0156C51.6302 20.7448 51.9062 21.3177 52.3125 21.7344C52.7188 22.151 53.224 22.3594 53.8281 22.3594C54.1406 22.3594 54.4688 22.2917 54.8125 22.1562L52.4531 18.7031L54.625 17.2031L56.3594 20.4688H56.4219ZM74.7031 21.1406C74.7031 22.7135 74.2135 23.9844 73.2344 24.9531C72.2656 25.9115 70.9844 26.3906 69.3906 26.3906C67.6615 26.3906 66.3125 25.9115 65.3438 24.9531C64.375 23.9844 63.8906 22.6354 63.8906 20.9062V12.5938H67.7344V21.1094C67.7344 22.5365 68.2865 23.25 69.3906 23.25C70.3906 23.25 70.8906 22.5781 70.8906 21.2344V12.5938H74.7031V21.1406ZM88.2188 20.1094H81.4688C81.5312 21.5573 81.6875 22.5052 81.9375 22.9531C82.1979 23.401 82.651 23.625 83.2969 23.625C84.1198 23.625 84.5677 23.0938 84.6406 22.0312H88C87.8646 23.4375 87.3646 24.5156 86.5 25.2656C85.6458 26.0156 84.5052 26.3906 83.0781 26.3906C81.2552 26.3906 79.8698 25.7812 78.9219 24.5625C77.974 23.3333 77.5 21.5417 77.5 19.1875C77.5 17.0938 78.026 15.4062 79.0781 14.125C80.1302 12.8438 81.5052 12.2031 83.2031 12.2031C84.4115 12.2031 85.4167 12.5573 86.2188 13.2656C87.0312 13.9635 87.5677 14.8385 87.8281 15.8906C88.0885 16.9427 88.2188 18.349 88.2188 20.1094ZM84.6406 17.9062C84.6302 16.7708 84.5156 15.9323 84.2969 15.3906C84.0781 14.849 83.7031 14.5781 83.1719 14.5781C82.5573 14.5781 82.1198 14.849 81.8594 15.3906C81.6094 15.9219 81.4792 16.7604 81.4688 17.9062H84.6406ZM98.7656 16.0469C98.1302 15.9219 97.6823 15.8594 97.4219 15.8594C95.6198 15.8594 94.7188 16.8073 94.7188 18.7031V26H90.8906V12.5938H94.4688V15.7656H94.5312C95.125 13.4219 96.5365 12.224 98.7656 12.1719V16.0469ZM111.594 12.5938L105.844 31.9219H102.062L103.891 25.8125L100.328 12.5938H104.078L105.844 21.4531H105.906L107.766 12.5938H111.594Z" fill="white"/>
</svg>
