<svg width="149" height="34" viewBox="0 0 149 34" fill="none" xmlns="http://www.w3.org/2000/svg">
<g clip-path="url(#clip0_41_2329)">
<path d="M0 2H30V32H0V2Z" fill="#F7DF1E"/>
<path d="M7.8883 27.0702L10.184 25.6808C10.627 26.4661 11.0299 27.1305 11.9963 27.1305C12.9227 27.1305 13.5069 26.7682 13.5069 25.3586V15.7729H16.326V25.3985C16.326 28.3185 14.6144 29.6476 12.1171 29.6476C9.86186 29.6476 8.55275 28.4796 7.88818 27.0699M17.8573 26.7681L20.1528 25.439C20.7571 26.4259 21.5425 27.1508 22.9319 27.1508C24.1001 27.1508 24.845 26.5667 24.845 25.7612C24.845 24.7946 24.0797 24.4522 22.7909 23.8885L22.0863 23.5862C20.0522 22.7205 18.7031 21.633 18.7031 19.3373C18.7031 17.2228 20.314 15.6117 22.8313 15.6117C24.6236 15.6117 25.9124 16.2361 26.8387 17.8672L24.6435 19.277C24.1601 18.4111 23.6368 18.0688 22.8312 18.0688C22.0055 18.0688 21.4819 18.5924 21.4819 19.277C21.4819 20.1227 22.0055 20.4652 23.2137 20.9888L23.9185 21.2908C26.315 22.318 27.6642 23.3651 27.6642 25.721C27.6642 28.2586 25.6706 29.6479 22.9922 29.6479C20.3744 29.6479 18.6828 28.3994 17.8572 26.7682" fill="black"/>
</g>
<path d="M45.7969 20.1719C45.7969 22.349 45.3698 23.9323 44.5156 24.9219C43.6719 25.901 42.3073 26.3906 40.4219 26.3906C39.7552 26.3906 39.2031 26.3229 38.7656 26.1875C38.3281 26.0625 37.6927 25.776 36.8594 25.3281V21.0156C36.9531 21.0469 37.1146 21.151 37.3438 21.3281C38.3021 22.0365 39.1458 22.3906 39.875 22.3906C41 22.3906 41.5625 21.5573 41.5625 19.8906V6.48438H45.7969V20.1719ZM59.5938 26H55.7969V23.7344H55.7344C55.1094 25.5052 54.0625 26.3906 52.5938 26.3906C51.5521 26.3906 50.6406 25.8854 49.8594 24.875C49.0781 23.8646 48.6875 22.0521 48.6875 19.4375C48.6875 14.6146 50.0208 12.2031 52.6875 12.2031C54.1354 12.2031 55.1406 13.1302 55.7031 14.9844H55.7656V12.5938H59.5938V26ZM54 15.5625C53.0833 15.5625 52.625 16.7031 52.625 18.9844C52.625 20.349 52.75 21.3438 53 21.9688C53.25 22.5833 53.6667 22.8906 54.25 22.8906C54.8021 22.8906 55.1979 22.6094 55.4375 22.0469C55.6771 21.4844 55.7969 20.5833 55.7969 19.3438C55.7969 18.0312 55.6615 17.0729 55.3906 16.4688C55.1198 15.8646 54.6771 15.5625 54.0625 15.5625H54ZM61.9219 12.5938H65.6406L67.5 21.4219L69.4531 12.5938H73.1875L69.125 26H65.5469L61.9219 12.5938ZM85.375 26H81.5781V23.7344H81.5156C80.8906 25.5052 79.8438 26.3906 78.375 26.3906C77.3333 26.3906 76.4219 25.8854 75.6406 24.875C74.8594 23.8646 74.4688 22.0521 74.4688 19.4375C74.4688 14.6146 75.8021 12.2031 78.4688 12.2031C79.9167 12.2031 80.9219 13.1302 81.4844 14.9844H81.5469V12.5938H85.375V26ZM79.7812 15.5625C78.8646 15.5625 78.4062 16.7031 78.4062 18.9844C78.4062 20.349 78.5312 21.3438 78.7812 21.9688C79.0312 22.5833 79.4479 22.8906 80.0312 22.8906C80.5833 22.8906 80.9792 22.6094 81.2188 22.0469C81.4583 21.4844 81.5781 20.5833 81.5781 19.3438C81.5781 18.0312 81.4427 17.0729 81.1719 16.4688C80.901 15.8646 80.4583 15.5625 79.8438 15.5625H79.7812ZM95.3906 16.2969C94.349 15.474 93.5052 15.0625 92.8594 15.0625C92.1302 15.0625 91.7656 15.349 91.7656 15.9219C91.7656 16.2969 92.3646 16.8021 93.5625 17.4375C94.7604 18.0625 95.6354 18.7552 96.1875 19.5156C96.7396 20.276 97.0156 21.1875 97.0156 22.25C97.0156 23.4479 96.599 24.4375 95.7656 25.2188C94.9323 26 93.8698 26.3906 92.5781 26.3906C91.6615 26.3906 90.8646 26.2656 90.1875 26.0156C89.5104 25.776 88.7812 25.3854 88 24.8438L89.625 22.0625C89.7188 22.1146 89.8385 22.1979 89.9844 22.3125C90.9323 23.0625 91.6875 23.4375 92.25 23.4375C92.5938 23.4375 92.8698 23.3438 93.0781 23.1562C93.2969 22.9583 93.4062 22.7135 93.4062 22.4219C93.4062 22.1615 93.2396 21.8854 92.9062 21.5938C92.5729 21.2917 91.9167 20.8438 90.9375 20.25C89.9583 19.6562 89.25 19.0729 88.8125 18.5C88.375 17.9167 88.1562 17.2188 88.1562 16.4062C88.1562 15.1771 88.5677 14.1719 89.3906 13.3906C90.224 12.599 91.2969 12.2031 92.6094 12.2031C94.0677 12.2031 95.4844 12.6979 96.8594 13.6875L95.3906 16.2969ZM106.797 16.0156C106.214 15.5885 105.661 15.375 105.141 15.375C103.818 15.375 103.156 16.6771 103.156 19.2812C103.156 21.9271 103.807 23.25 105.109 23.25C105.609 23.25 106.161 23.0573 106.766 22.6719V25.875C105.724 26.2604 104.839 26.4531 104.109 26.4531C102.609 26.4531 101.422 25.8594 100.547 24.6719C99.6823 23.4844 99.25 21.849 99.25 19.7656C99.25 16.9219 99.7135 14.9635 100.641 13.8906C101.568 12.8073 102.76 12.2656 104.219 12.2656C105.177 12.2656 106.036 12.4688 106.797 12.875V16.0156ZM117.172 16.0469C116.536 15.9219 116.089 15.8594 115.828 15.8594C114.026 15.8594 113.125 16.8073 113.125 18.7031V26H109.297V12.5938H112.875V15.7656H112.938C113.531 13.4219 114.943 12.224 117.172 12.1719V16.0469ZM119.094 8.14062C119.094 7.52604 119.318 6.99479 119.766 6.54688C120.214 6.09896 120.75 5.875 121.375 5.875C122 5.875 122.531 6.09896 122.969 6.54688C123.417 6.98438 123.641 7.51562 123.641 8.14062C123.641 8.76562 123.417 9.30208 122.969 9.75C122.531 10.1979 122 10.4219 121.375 10.4219C120.75 10.4219 120.214 10.1979 119.766 9.75C119.318 9.30208 119.094 8.76562 119.094 8.14062ZM119.516 12.5938H123.328V26H119.516V12.5938ZM130.672 14.7031C131.411 13.0365 132.422 12.2031 133.703 12.2031C134.807 12.2031 135.74 12.7135 136.5 13.7344C137.26 14.7552 137.641 16.5729 137.641 19.1875C137.641 21.9792 137.245 23.8802 136.453 24.8906C135.661 25.8906 134.724 26.3906 133.641 26.3906C132.349 26.3906 131.349 25.5365 130.641 23.8281L130.672 23.7344H130.609V31.9219H126.734V12.5938H130.609V14.7031H130.672ZM132.266 22.9531C132.818 22.9531 133.198 22.6615 133.406 22.0781C133.625 21.4844 133.734 20.5 133.734 19.125C133.734 16.8438 133.234 15.7031 132.234 15.7031C131.651 15.7031 131.234 15.9896 130.984 16.5625C130.734 17.1354 130.609 18.0625 130.609 19.3438C130.609 21.75 131.161 22.9531 132.266 22.9531ZM148.031 15.625H145.672V26H141.828V15.6562H139.422V12.5938H141.828V8.78125H145.672V12.5938H148.031V15.625Z" fill="white"/>
<defs>
<clipPath id="clip0_41_2329">
<rect width="30" height="30" fill="white" transform="translate(0 2)"/>
</clipPath>
</defs>
</svg>
