<svg width="30" height="30" viewBox="0 0 30 30" fill="none" xmlns="http://www.w3.org/2000/svg">
<path d="M18.2952 11.2049C17.6596 11.2049 17.189 11.3652 16.8205 11.5677C16.7615 11.3577 16.5674 11.204 16.3386 11.2499H13.5411C13.2646 11.204 13.0405 11.428 13.1258 11.7186V22.0311C13.0405 22.2936 13.2646 22.5186 13.5411 22.4999H16.3386C16.6152 22.5186 16.8393 22.2936 16.8393 22.0171L16.8383 15.7846C16.8374 15.7818 16.8271 15.4836 17.0155 15.2783C17.1665 15.1152 17.4261 15.0318 17.7852 15.0318C18.3833 15.0318 18.6496 15.2765 18.749 15.824V22.0171C18.6505 22.2936 18.8746 22.5186 19.1511 22.4999H22.0996C22.3761 22.5186 22.6002 22.2936 22.5008 22.0171V15.6158C22.5993 12.3608 20.2808 11.2049 18.2952 11.2049ZM21.598 21.5624H19.6518V15.824C19.6518 14.7168 18.9365 14.0305 17.7861 14.0305C17.1355 14.0305 16.6293 14.2218 16.2805 14.5986C15.7958 15.1236 15.8333 15.7893 15.9374 15.9374V21.5624H14.0418V12.2061H15.838V12.5211C15.8373 12.615 15.863 12.7071 15.9123 12.787C15.9616 12.8668 16.0324 12.9312 16.1166 12.9726C16.2008 13.014 16.295 13.0308 16.3883 13.0211C16.4817 13.0114 16.5704 12.9756 16.6443 12.9177L16.7755 12.8165C17.1552 12.5174 17.548 12.2071 18.2961 12.2071C19.0705 12.2071 21.599 12.4536 21.599 15.6168V21.5624H21.598ZM10.3124 6.53052C9.26052 6.53052 8.40552 7.38552 8.40552 8.43739C8.40552 9.48927 9.26052 10.3443 10.3124 10.3443C11.3643 10.3443 12.2193 9.48927 12.2193 8.43739C12.2193 7.38552 11.3643 6.53052 10.3124 6.53052ZM10.3124 9.34302C9.81364 9.34302 9.40677 8.93614 9.40677 8.43739C9.40677 7.93864 9.81364 7.53177 10.3124 7.53177C10.8111 7.53177 11.218 7.93864 11.218 8.43739C11.218 8.93614 10.8111 9.34302 10.3124 9.34302ZM11.6511 11.204H8.86864C8.59208 11.204 8.36802 11.428 8.43739 11.7186V22.0311C8.36802 22.2936 8.59208 22.5186 8.86864 22.4999H11.6511C11.9277 22.5186 12.1518 22.2936 12.1518 22.0171V11.7046C12.1518 11.5718 12.099 11.4445 12.0051 11.3506C11.9113 11.2567 11.7839 11.204 11.6511 11.204ZM11.2499 21.5624H9.36927V12.2061H11.2499V21.5624Z" fill="white"/>
<path d="M14.9999 -0.0319824C6.71052 -0.0319824 -0.0319824 6.71052 -0.0319824 14.9999C-0.0319824 23.2893 6.71052 30.0318 14.9999 30.0318C23.2893 30.0318 30.0318 23.2893 30.0318 14.9999C30.0318 6.71052 23.2893 -0.0319824 14.9999 -0.0319824ZM14.9999 29.0305C7.26364 29.0305 0.969268 22.7361 0.969268 14.9999C0.969268 7.26364 7.26364 0.969268 14.9999 0.969268C22.7361 0.969268 29.0305 7.26364 29.0305 14.9999C29.0305 22.7361 22.7361 29.0305 14.9999 29.0305Z" fill="white"/>
</svg>
