<svg width="82" height="34" viewBox="0 0 82 34" fill="none" xmlns="http://www.w3.org/2000/svg">
<path d="M15 8.875C6.58875 8.875 0 12.4437 0 17C0 21.5562 6.58875 25.125 15 25.125C23.4113 25.125 30 21.5562 30 17C30 12.4437 23.4113 8.875 15 8.875ZM13.4425 11.375H15.08L14.56 13.875H16.0225C16.95 13.875 17.5725 14.005 17.9275 14.3287C18.2738 14.6487 18.3787 15.1737 18.24 15.8888L17.59 18.875H15.925L16.5238 16.1138C16.5963 15.735 16.5675 15.4713 16.44 15.3325C16.3138 15.1938 16.035 15.125 15.6175 15.125H14.3062L13.515 18.875H11.875L13.4425 11.375ZM6.25 13.875H9.5825C11.1713 13.875 12.1337 14.94 11.7575 16.5288C11.32 18.375 10.15 18.875 7.995 18.875H6.965L6.63875 20.75H4.9825L6.25 13.875ZM19.375 13.875H22.7075C24.2963 13.875 25.2588 14.94 24.8825 16.5288C24.445 18.375 23.2738 18.875 21.12 18.875H20.09L19.7638 20.75H18.1075L19.375 13.875ZM7.66875 15.125L7.1975 17.625H8.26625C9.19125 17.625 10.0513 17.52 10.195 16.14C10.2487 15.6063 10.0262 15.125 8.9575 15.125H7.66875ZM20.7938 15.125L20.3225 17.625H21.3913C22.3163 17.625 23.1763 17.52 23.32 16.14C23.3738 15.6063 23.1525 15.125 22.0825 15.125H20.7938Z" fill="#387EB8"/>
<path d="M39.0781 6.48438H44.5469C48.7969 6.48438 50.9219 8.52083 50.9219 12.5938C50.9219 14.4167 50.3698 15.8281 49.2656 16.8281C48.1615 17.8177 46.599 18.3125 44.5781 18.3125H43.3438V26H39.0781V6.48438ZM43.2969 15.25H44.1406C44.8906 15.25 45.4688 15.0104 45.875 14.5312C46.2917 14.0521 46.5 13.375 46.5 12.5C46.5 10.5729 45.7552 9.60938 44.2656 9.60938H43.2969V15.25ZM53.3594 6.48438H57.5781V13.9375H61.5156V6.48438H65.75V26H61.5156V17.75H57.6094V26H53.3594V6.48438ZM69.4219 6.48438H74.8906C79.1406 6.48438 81.2656 8.52083 81.2656 12.5938C81.2656 14.4167 80.7135 15.8281 79.6094 16.8281C78.5052 17.8177 76.9427 18.3125 74.9219 18.3125H73.6875V26H69.4219V6.48438ZM73.6406 15.25H74.4844C75.2344 15.25 75.8125 15.0104 76.2188 14.5312C76.6354 14.0521 76.8438 13.375 76.8438 12.5C76.8438 10.5729 76.099 9.60938 74.6094 9.60938H73.6406V15.25Z" fill="white"/>
</svg>
