<svg width="113" height="34" viewBox="0 0 113 34" fill="none" xmlns="http://www.w3.org/2000/svg">
<path d="M14.8922 3.96877C8.23594 3.96877 8.65688 6.84689 8.65688 6.84689V9.83752H14.9869V10.775H6.13594C6.13594 10.775 1.875 10.25 1.875 17.0047C1.875 23.7594 5.63719 23.4847 5.63719 23.4847H7.80937V20.3338C7.80937 20.3338 7.6875 16.5716 11.4656 16.5716H17.805C17.805 16.5716 21.3412 16.6278 21.3412 13.1478V7.43752C21.3412 7.43752 21.8775 3.95752 14.9269 3.95752L14.8922 3.96877ZM11.3934 5.97221C11.6185 5.96653 11.8401 6.02771 12.0304 6.14802C12.2207 6.26833 12.371 6.44236 12.4623 6.6481C12.5537 6.85384 12.582 7.08204 12.5436 7.30386C12.5053 7.52568 12.402 7.73115 12.2469 7.89427C12.0918 8.0574 11.8917 8.17086 11.6721 8.2203C11.4525 8.26975 11.2232 8.25295 11.0131 8.17205C10.803 8.09115 10.6217 7.94977 10.492 7.76579C10.3623 7.58181 10.29 7.3635 10.2844 7.13846V7.11971C10.2844 6.81786 10.4043 6.52837 10.6177 6.31493C10.8312 6.10149 11.1207 5.98158 11.4225 5.98158L11.3934 5.97221Z" fill="url(#paint0_linear_41_2353)"/>
<path d="M15.0795 30.0406C21.7358 30.0406 21.3148 27.1531 21.3148 27.1531V24.1719H14.9858V23.2344H23.8639C23.8639 23.2344 28.1248 23.7106 28.1248 16.9953C28.1248 10.28 24.3626 10.5153 24.3626 10.5153H22.1623V13.625C22.1623 13.625 22.2842 17.3872 18.5061 17.3872H12.1639C12.1639 17.3872 8.62482 17.3337 8.62482 20.8137V26.5625C8.62482 26.5625 8.08857 30.0425 15.0392 30.0425H15.0767L15.0795 30.0406ZM18.5783 28.0278C18.3532 28.0335 18.1315 27.9723 17.9413 27.852C17.751 27.7317 17.6007 27.5576 17.5094 27.3519C17.418 27.1462 17.3897 26.918 17.4281 26.6961C17.4664 26.4743 17.5697 26.2689 17.7248 26.1057C17.8799 25.9426 18.08 25.8291 18.2996 25.7797C18.5192 25.7303 18.7485 25.747 18.9586 25.8279C19.1687 25.9088 19.35 26.0502 19.4797 26.2342C19.6094 26.4182 19.6817 26.6365 19.6873 26.8615V26.8897C19.6873 27.1915 19.5674 27.481 19.354 27.6944C19.1405 27.9079 18.851 28.0278 18.5492 28.0278H18.5773H18.5783Z" fill="url(#paint1_linear_41_2353)"/>
<path d="M36.0781 6.48438H41.5469C45.7969 6.48438 47.9219 8.52083 47.9219 12.5938C47.9219 14.4167 47.3698 15.8281 46.2656 16.8281C45.1615 17.8177 43.599 18.3125 41.5781 18.3125H40.3438V26H36.0781V6.48438ZM40.2969 15.25H41.1406C41.8906 15.25 42.4688 15.0104 42.875 14.5312C43.2917 14.0521 43.5 13.375 43.5 12.5C43.5 10.5729 42.7552 9.60938 41.2656 9.60938H40.2969V15.25ZM60.5312 12.5938L54.7812 31.9219H51L52.8281 25.8125L49.2656 12.5938H53.0156L54.7812 21.4531H54.8438L56.7031 12.5938H60.5312ZM70.5625 15.625H68.2031V26H64.3594V15.6562H61.9531V12.5938H64.3594V8.78125H68.2031V12.5938H70.5625V15.625ZM83.8594 26H80.0469V18.5781C80.0469 16.9115 79.5156 16.0781 78.4531 16.0781C77.9635 16.0781 77.5781 16.2865 77.2969 16.7031C77.026 17.1198 76.8906 17.6927 76.8906 18.4219V26H73.0781V5.14062H76.8906V15.0625H76.9531C78.0573 13.1354 79.3021 12.1719 80.6875 12.1719C81.6875 12.1719 82.4635 12.625 83.0156 13.5312C83.5781 14.4271 83.8594 15.6927 83.8594 17.3281V26ZM86.4688 19.4375C86.4688 17.1042 86.9479 15.3177 87.9062 14.0781C88.8646 12.8281 90.2292 12.2031 92 12.2031C93.7917 12.2031 95.1562 12.8125 96.0938 14.0312C97.0417 15.25 97.5156 17.0208 97.5156 19.3438C97.5156 21.6146 97.0469 23.3594 96.1094 24.5781C95.1823 25.7865 93.849 26.3906 92.1094 26.3906C90.276 26.3906 88.875 25.7969 87.9062 24.6094C86.9479 23.4115 86.4688 21.6875 86.4688 19.4375ZM93.6094 19.375C93.6094 17.9062 93.5104 16.875 93.3125 16.2812C93.1146 15.6771 92.6875 15.375 92.0312 15.375C91.4271 15.375 91 15.6562 90.75 16.2188C90.5 16.7812 90.375 17.6927 90.375 18.9531C90.375 20.526 90.4792 21.6354 90.6875 22.2812C90.8958 22.9271 91.3333 23.25 92 23.25C92.6354 23.25 93.0625 22.9635 93.2812 22.3906C93.5 21.8073 93.6094 20.8021 93.6094 19.375ZM104.203 12.5938V15.0625H104.266C104.849 14.0729 105.427 13.349 106 12.8906C106.583 12.4323 107.26 12.2031 108.031 12.2031C108.979 12.2031 109.74 12.6146 110.312 13.4375C110.885 14.25 111.172 15.3333 111.172 16.6875V26H107.391V18.25C107.391 17.5833 107.25 17.0625 106.969 16.6875C106.688 16.3021 106.297 16.1094 105.797 16.1094C104.734 16.1094 104.203 16.9323 104.203 18.5781V26H100.391V12.5938H104.203Z" fill="white"/>
<defs>
<linearGradient id="paint0_linear_41_2353" x1="4.46921" y1="6.52149" x2="16.9255" y2="18.9495" gradientUnits="userSpaceOnUse">
<stop stop-color="#387EB8"/>
<stop offset="1" stop-color="#366994"/>
</linearGradient>
<linearGradient id="paint1_linear_41_2353" x1="11.8381" y1="14.6174" x2="26.0695" y2="27.0417" gradientUnits="userSpaceOnUse">
<stop stop-color="#FFE052"/>
<stop offset="1" stop-color="#FFC331"/>
</linearGradient>
</defs>
</svg>
