<svg width="95" height="34" viewBox="0 0 95 34" fill="none" xmlns="http://www.w3.org/2000/svg">
<path d="M15 19.3194C16.2944 19.3194 17.3438 18.2701 17.3438 16.9756C17.3438 15.6812 16.2944 14.6319 15 14.6319C13.7056 14.6319 12.6562 15.6812 12.6562 16.9756C12.6562 18.2701 13.7056 19.3194 15 19.3194Z" fill="#007ACC"/>
<path d="M15 22.3494C12.1829 22.4175 9.37293 22.0378 6.675 21.2244C5.42871 20.8293 4.26631 20.2069 3.24656 19.3888C2.85743 19.1092 2.53338 18.7489 2.29663 18.3323C2.05989 17.9158 1.91605 17.453 1.875 16.9756C1.875 15.4259 3.5775 13.9072 6.42937 12.9134C9.19944 12.0329 12.0937 11.6061 15 11.6497C17.8675 11.6096 20.723 12.0287 23.4581 12.8909C24.6584 13.2736 25.7814 13.8659 26.775 14.6403C27.1575 14.9068 27.4767 15.2541 27.71 15.6577C27.9433 16.0613 28.085 16.5112 28.125 16.9756C28.125 18.5863 26.2219 20.2184 23.1562 21.2328C20.5106 22.0197 17.7598 22.3963 15 22.3494ZM15 12.7709C12.2195 12.7338 9.45077 13.1395 6.79781 13.9728C4.17281 14.8888 2.99625 16.1413 2.99625 16.9728C2.99625 17.8428 4.26094 19.2106 7.03781 20.1603C9.61882 20.9346 12.3062 21.295 15 21.2281C17.6404 21.2753 20.2724 20.9181 22.8047 20.1688C25.6875 19.2134 27 17.8438 27 16.9756C26.9527 16.6777 26.8441 16.3929 26.6812 16.139C26.5182 15.8852 26.3043 15.6679 26.0531 15.5009C25.1641 14.8139 24.161 14.289 23.0897 13.9503C20.4732 13.1288 17.7422 12.7307 15 12.7709Z" fill="#007ACC"/>
<path d="M9.67512 28.6653C9.23778 28.6754 8.80559 28.5692 8.42262 28.3578C7.08012 27.5834 6.61512 25.3503 7.17856 22.3831C7.79979 19.5435 8.87619 16.8231 10.3661 14.3272C11.7636 11.8232 13.5528 9.55899 15.6657 7.62032C16.5968 6.7716 17.6709 6.09458 18.8382 5.62063C19.2605 5.42276 19.721 5.32019 20.1873 5.32019C20.6536 5.32019 21.1142 5.42276 21.5364 5.62063C22.9323 6.42501 23.3945 8.88876 22.7429 12.0509C22.1025 14.7365 21.0541 17.3079 19.6342 19.6756C18.2858 22.15 16.553 24.3946 14.5004 26.3253C13.5355 27.2073 12.4157 27.9031 11.1976 28.3775C10.71 28.5585 10.1952 28.6558 9.67512 28.6653ZM11.3373 14.8841C9.91615 17.2741 8.88449 19.875 8.28106 22.5894C7.76262 25.3222 8.26044 26.9656 8.98419 27.3838C9.73419 27.8178 11.5548 27.4063 13.7654 25.475C15.7248 23.6253 17.3788 21.4768 18.6657 19.1094C20.026 16.8458 21.0317 14.3873 21.6479 11.8194C22.2611 8.84282 21.7314 7.02032 20.9795 6.58719C20.6977 6.47922 20.3966 6.43088 20.0951 6.44525C19.7937 6.45961 19.4985 6.53635 19.2282 6.67063C18.1892 7.09939 17.2339 7.7081 16.4064 8.46876C14.3876 10.3257 12.6786 12.4934 11.3439 14.8897L11.3373 14.8841Z" fill="#007ACC"/>
<path d="M20.3223 28.6775C19.052 28.6775 17.4385 27.9087 15.7585 26.464C13.6086 24.5077 11.7891 22.2166 10.3707 19.6794C8.89954 17.2178 7.83167 14.5367 7.2076 11.7378C6.93696 10.5064 6.8868 9.23672 7.05948 7.98779C7.0994 7.52449 7.24048 7.07558 7.47276 6.67273C7.70504 6.26987 8.02288 5.92289 8.40385 5.65623C9.79792 4.84904 12.1632 5.67873 14.5773 7.82186C16.5841 9.71765 18.2883 11.91 19.6304 14.3225C21.1007 16.7266 22.1798 19.3489 22.8273 22.0915C23.1096 23.3681 23.1531 24.686 22.9557 25.9784C22.9088 26.455 22.7593 26.9159 22.5175 27.3293C22.2758 27.7428 21.9475 28.0991 21.5551 28.3737C21.1784 28.5825 20.7529 28.6874 20.3223 28.6775ZM11.341 19.115C12.7018 21.5398 14.4397 23.7325 16.4898 25.6109C18.5982 27.425 20.2707 27.815 20.9898 27.3922C21.7398 26.9562 22.2929 25.1769 21.7229 22.2978C21.0984 19.6793 20.0634 17.1761 18.6564 14.8812C17.3756 12.5723 15.7489 10.473 13.8329 8.65623C11.5604 6.63873 9.71729 6.18779 8.96635 6.62279C8.7323 6.81299 8.54023 7.04966 8.40226 7.31784C8.2643 7.58603 8.18344 7.8799 8.16479 8.18092C8.01573 9.29475 8.06429 10.4261 8.30823 11.5231C8.90851 14.1998 9.93267 16.7634 11.342 19.1169L11.341 19.115Z" fill="#007ACC"/>
<path d="M48.2031 26H43.8906L40.5 16.3438H40.4375V26H36.2344V6.48438H41.7188C42.8125 6.48438 43.901 6.70312 44.9844 7.14062C46.0781 7.57812 46.8542 8.26042 47.3125 9.1875C47.7812 10.1146 48.0156 11.0781 48.0156 12.0781C48.0156 13.2865 47.7552 14.2812 47.2344 15.0625C46.7135 15.8333 45.8854 16.5365 44.75 17.1719L48.2031 26ZM40.4375 15.25C41.8125 15.25 42.6823 14.9844 43.0469 14.4531C43.4115 13.9115 43.5938 13.2292 43.5938 12.4062C43.5938 10.5417 42.8281 9.60938 41.2969 9.60938H40.4375V15.25ZM60.625 20.1094H53.875C53.9375 21.5573 54.0938 22.5052 54.3438 22.9531C54.6042 23.401 55.0573 23.625 55.7031 23.625C56.526 23.625 56.974 23.0938 57.0469 22.0312H60.4062C60.2708 23.4375 59.7708 24.5156 58.9062 25.2656C58.0521 26.0156 56.9115 26.3906 55.4844 26.3906C53.6615 26.3906 52.276 25.7812 51.3281 24.5625C50.3802 23.3333 49.9062 21.5417 49.9062 19.1875C49.9062 17.0938 50.4323 15.4062 51.4844 14.125C52.5365 12.8438 53.9115 12.2031 55.6094 12.2031C56.8177 12.2031 57.8229 12.5573 58.625 13.2656C59.4375 13.9635 59.974 14.8385 60.2344 15.8906C60.4948 16.9427 60.625 18.349 60.625 20.1094ZM57.0469 17.9062C57.0365 16.7708 56.9219 15.9323 56.7031 15.3906C56.4844 14.849 56.1094 14.5781 55.5781 14.5781C54.9635 14.5781 54.526 14.849 54.2656 15.3906C54.0156 15.9219 53.8854 16.7604 53.875 17.9062H57.0469ZM73.7188 26H69.9219V23.7344H69.8594C69.2344 25.5052 68.1875 26.3906 66.7188 26.3906C65.6771 26.3906 64.7656 25.8854 63.9844 24.875C63.2031 23.8646 62.8125 22.0521 62.8125 19.4375C62.8125 14.6146 64.1458 12.2031 66.8125 12.2031C68.2604 12.2031 69.2656 13.1302 69.8281 14.9844H69.8906V12.5938H73.7188V26ZM68.125 15.5625C67.2083 15.5625 66.75 16.7031 66.75 18.9844C66.75 20.349 66.875 21.3438 67.125 21.9688C67.375 22.5833 67.7917 22.8906 68.375 22.8906C68.9271 22.8906 69.3229 22.6094 69.5625 22.0469C69.8021 21.4844 69.9219 20.5833 69.9219 19.3438C69.9219 18.0312 69.7865 17.0729 69.5156 16.4688C69.2448 15.8646 68.8021 15.5625 68.1875 15.5625H68.125ZM84.1094 16.0156C83.526 15.5885 82.974 15.375 82.4531 15.375C81.1302 15.375 80.4688 16.6771 80.4688 19.2812C80.4688 21.9271 81.1198 23.25 82.4219 23.25C82.9219 23.25 83.474 23.0573 84.0781 22.6719V25.875C83.0365 26.2604 82.151 26.4531 81.4219 26.4531C79.9219 26.4531 78.7344 25.8594 77.8594 24.6719C76.9948 23.4844 76.5625 21.849 76.5625 19.7656C76.5625 16.9219 77.026 14.9635 77.9531 13.8906C78.8802 12.8073 80.0729 12.2656 81.5312 12.2656C82.4896 12.2656 83.349 12.4688 84.1094 12.875V16.0156ZM94.3125 15.625H91.9531V26H88.1094V15.6562H85.7031V12.5938H88.1094V8.78125H91.9531V12.5938H94.3125V15.625Z" fill="white"/>
</svg>
