<svg width="132" height="34" viewBox="0 0 132 34" fill="none" xmlns="http://www.w3.org/2000/svg">
<g clip-path="url(#clip0_41_2345)">
<path d="M15 2C11.0004 2 8.5006 5.32474 7.50073 11.974C9.00059 8.64929 10.7504 7.40253 12.7502 8.23377C13.8912 8.70792 14.7067 10.0842 15.6094 11.6074C17.08 14.089 18.7819 16.961 22.4993 16.961C26.4988 16.961 28.9987 13.6363 29.9985 6.98701C28.4987 10.3118 26.7489 11.5585 24.749 10.7273C23.6081 10.2531 22.7926 8.87682 21.8898 7.35364C20.4193 4.87201 18.7174 2 15 2ZM7.50073 16.961C3.50116 16.961 1.00133 20.2858 0.00146484 26.9351C1.50132 23.6103 3.25111 22.3636 5.25095 23.1948C6.39189 23.669 7.20744 25.0453 8.11016 26.5684C9.58072 29.0501 11.2826 31.9221 15 31.9221C18.9996 31.9221 21.4994 28.5973 22.4993 21.948C20.9994 25.2728 19.2496 26.5195 17.2498 25.6883C16.1088 25.2142 15.2933 23.8379 14.3906 22.3147C12.92 19.833 11.2181 16.961 7.50073 16.961Z" fill="url(#paint0_linear_41_2345)"/>
</g>
<path d="M49.8594 10.2812H46.0625V26H41.8594V10.3125H37.9844V6.48438H49.8594V10.2812ZM61 26H57.2031V23.7344H57.1406C56.5156 25.5052 55.4688 26.3906 54 26.3906C52.9583 26.3906 52.0469 25.8854 51.2656 24.875C50.4844 23.8646 50.0938 22.0521 50.0938 19.4375C50.0938 14.6146 51.4271 12.2031 54.0938 12.2031C55.5417 12.2031 56.5469 13.1302 57.1094 14.9844H57.1719V12.5938H61V26ZM55.4062 15.5625C54.4896 15.5625 54.0312 16.7031 54.0312 18.9844C54.0312 20.349 54.1562 21.3438 54.4062 21.9688C54.6562 22.5833 55.0729 22.8906 55.6562 22.8906C56.2083 22.8906 56.6042 22.6094 56.8438 22.0469C57.0833 21.4844 57.2031 20.5833 57.2031 19.3438C57.2031 18.0312 57.0677 17.0729 56.7969 16.4688C56.526 15.8646 56.0833 15.5625 55.4688 15.5625H55.4062ZM64 8.14062C64 7.52604 64.224 6.99479 64.6719 6.54688C65.1198 6.09896 65.6562 5.875 66.2812 5.875C66.9062 5.875 67.4375 6.09896 67.875 6.54688C68.3229 6.98438 68.5469 7.51562 68.5469 8.14062C68.5469 8.76562 68.3229 9.30208 67.875 9.75C67.4375 10.1979 66.9062 10.4219 66.2812 10.4219C65.6562 10.4219 65.1198 10.1979 64.6719 9.75C64.224 9.30208 64 8.76562 64 8.14062ZM64.4219 12.5938H68.2344V26H64.4219V12.5938ZM75.5781 26H71.7344V5.14062H75.5781V26ZM95.9062 12.625L92.3281 26H88.875L86.9844 17.1719H86.9219L85 26H81.5781L77.9844 12.625H81.6406L83.3594 21.4844L85.3125 12.625H88.6719L90.5312 21.5781L92.4219 12.625H95.9062ZM98.0312 8.14062C98.0312 7.52604 98.2552 6.99479 98.7031 6.54688C99.151 6.09896 99.6875 5.875 100.312 5.875C100.938 5.875 101.469 6.09896 101.906 6.54688C102.354 6.98438 102.578 7.51562 102.578 8.14062C102.578 8.76562 102.354 9.30208 101.906 9.75C101.469 10.1979 100.938 10.4219 100.312 10.4219C99.6875 10.4219 99.151 10.1979 98.7031 9.75C98.2552 9.30208 98.0312 8.76562 98.0312 8.14062ZM98.4531 12.5938H102.266V26H98.4531V12.5938ZM109.547 12.5938V15.0625H109.609C110.193 14.0729 110.771 13.349 111.344 12.8906C111.927 12.4323 112.604 12.2031 113.375 12.2031C114.323 12.2031 115.083 12.6146 115.656 13.4375C116.229 14.25 116.516 15.3333 116.516 16.6875V26H112.734V18.25C112.734 17.5833 112.594 17.0625 112.312 16.6875C112.031 16.3021 111.641 16.1094 111.141 16.1094C110.078 16.1094 109.547 16.9323 109.547 18.5781V26H105.734V12.5938H109.547ZM130.031 26H126.234V23.7969H126.172C125.474 25.526 124.406 26.3906 122.969 26.3906C121.969 26.3906 121.078 25.8854 120.297 24.875C119.516 23.8542 119.125 21.9896 119.125 19.2812C119.125 17 119.474 15.2552 120.172 14.0469C120.88 12.8385 121.885 12.2344 123.188 12.2344C124.583 12.2344 125.578 13.1406 126.172 14.9531H126.234V5.14062H130.031V26ZM124.562 15.5938C123.562 15.5938 123.062 16.8438 123.062 19.3438C123.062 21.75 123.594 22.9531 124.656 22.9531C125.219 22.9531 125.62 22.6719 125.859 22.1094C126.109 21.5469 126.234 20.6354 126.234 19.375C126.234 16.8542 125.688 15.5938 124.594 15.5938H124.562Z" fill="white"/>
<defs>
<linearGradient id="paint0_linear_41_2345" x1="-0.831854" y1="11.5751" x2="29.982" y2="22.2618" gradientUnits="userSpaceOnUse">
<stop stop-color="#2298BD"/>
<stop offset="1" stop-color="#0ED7B5"/>
</linearGradient>
<clipPath id="clip0_41_2345">
<rect width="30" height="30" fill="white" transform="translate(0 2)"/>
</clipPath>
</defs>
</svg>
