<svg width="30" height="30" viewBox="0 0 30 30" fill="none" xmlns="http://www.w3.org/2000/svg">
<path d="M15.0001 -0.0319824C6.71166 -0.0319824 -0.0327148 6.71052 -0.0327148 14.9999C-0.0327148 23.2893 6.71166 30.0318 15.0001 30.0318C23.2885 30.0318 30.0329 23.2893 30.0329 14.9999C30.0329 6.71052 23.2885 -0.0319824 15.0001 -0.0319824ZM15.0001 29.0305C7.26385 29.0305 0.97041 22.7361 0.97041 14.9999C0.97041 7.26364 7.26385 0.969268 15.0001 0.969268C22.7363 0.969268 29.0298 7.26364 29.0298 14.9999C29.0298 22.7361 22.7363 29.0305 15.0001 29.0305Z" fill="#FFFBFB"/>
<path d="M23.2444 10.3555C23.3484 10.163 23.4341 9.96121 23.5003 9.75271C23.531 9.65599 23.5316 9.55225 23.5021 9.45517C23.4726 9.3581 23.4143 9.27226 23.335 9.20898C23.2557 9.14571 23.1591 9.10799 23.0578 9.10078C22.9566 9.09358 22.8556 9.11724 22.7681 9.16864C22.2878 9.45402 21.7677 9.66665 21.225 9.79958C20.5662 9.20499 19.7106 8.87537 18.8231 8.87427C18.341 8.87464 17.8639 8.97236 17.4204 9.16158C16.977 9.35079 16.5763 9.6276 16.2424 9.97541C15.9085 10.3232 15.6483 10.7349 15.4773 11.1857C15.3064 11.6365 15.2282 12.1172 15.2475 12.599C13.1391 12.3335 11.2138 11.2666 9.87096 9.61958C9.81951 9.55718 9.75376 9.50812 9.6793 9.47657C9.60483 9.44502 9.52385 9.43191 9.44323 9.43835C9.36262 9.4448 9.28475 9.4706 9.21624 9.51358C9.14772 9.55655 9.0906 9.61543 9.04971 9.68521C8.74223 10.2129 8.57511 10.8107 8.56428 11.4214C8.55344 12.0321 8.69927 12.6353 8.98784 13.1736C8.91706 13.1856 8.84907 13.2104 8.78721 13.2468C8.71141 13.2951 8.649 13.3618 8.60575 13.4406C8.56249 13.5194 8.53978 13.6078 8.53971 13.6977C8.53971 14.7618 9.01315 15.7386 9.77627 16.4024L9.74346 16.4352C9.68585 16.5004 9.64621 16.5794 9.62846 16.6646C9.6107 16.7498 9.61544 16.8381 9.64221 16.9208C9.80134 17.4173 10.067 17.8729 10.4207 18.2559C10.7744 18.6389 11.2075 18.9399 11.6897 19.138C10.6993 19.6212 9.59099 19.8096 8.49659 19.6808C8.38409 19.6694 8.27097 19.6955 8.17495 19.7553C8.07892 19.815 8.00542 19.9049 7.96596 20.0108C7.92807 20.1176 7.92736 20.234 7.96394 20.3412C8.00053 20.4484 8.07227 20.5401 8.16752 20.6015C9.65535 21.5563 11.3862 22.0637 13.1541 22.063C18.9478 22.063 22.411 17.3568 22.411 12.8071L22.41 12.6533C22.9715 12.215 23.4592 11.6896 23.8547 11.0971C23.9146 11.0075 23.944 10.901 23.9387 10.7934C23.9334 10.6858 23.8935 10.5828 23.825 10.4996C23.7566 10.4164 23.6631 10.3575 23.5585 10.3315C23.454 10.3056 23.3438 10.314 23.2444 10.3555ZM21.6085 12.0008C21.5404 12.0497 21.4857 12.1149 21.4494 12.1904C21.413 12.2659 21.3962 12.3493 21.4003 12.433C21.406 12.5568 21.4088 12.6824 21.4088 12.8061C21.4088 16.8636 18.3216 21.0608 13.155 21.0608C12.2336 21.0613 11.3186 20.9066 10.4485 20.6033C11.4906 20.4036 12.4696 19.9567 13.3031 19.3002C13.3843 19.2362 13.4437 19.1487 13.4732 19.0497C13.5028 18.9507 13.501 18.845 13.4682 18.747C13.4353 18.649 13.3731 18.5636 13.2898 18.5023C13.2066 18.4411 13.1065 18.4071 13.0031 18.4049C12.5989 18.3972 12.2022 18.2946 11.8449 18.1053C11.4876 17.9161 11.1798 17.6456 10.9463 17.3155C11.1835 17.2996 11.416 17.2602 11.6419 17.1993C11.7512 17.17 11.8475 17.1045 11.9148 17.0136C11.9822 16.9226 12.0167 16.8115 12.0128 16.6983C12.0089 16.5852 11.9667 16.4768 11.8932 16.3907C11.8198 16.3046 11.7193 16.2459 11.6081 16.2243C11.1516 16.1314 10.7289 15.9162 10.3853 15.6016C10.0416 15.287 9.78996 14.8849 9.65721 14.4383C9.90659 14.5011 10.1625 14.5377 10.4185 14.5461C10.6388 14.5452 10.8431 14.4102 10.9116 14.1983C10.98 13.9865 10.8994 13.753 10.7128 13.6293C10.2717 13.3354 9.93207 12.9125 9.74029 12.4183C9.5485 11.9242 9.51392 11.3829 9.64127 10.8683C11.2697 12.5392 13.4687 13.5343 15.7988 13.6546C15.9638 13.6555 16.1081 13.5965 16.2085 13.4755C16.3088 13.3546 16.3472 13.1943 16.3116 13.0405C16.1834 12.4883 16.2407 11.9093 16.4748 11.393C16.7088 10.8767 17.1065 10.4519 17.6063 10.1844C18.1061 9.91686 18.6801 9.82154 19.2395 9.91315C19.799 10.0048 20.3126 10.2782 20.701 10.6911C20.7592 10.7532 20.8322 10.7995 20.9132 10.8256C20.9943 10.8517 21.0806 10.8567 21.1641 10.8402C21.3188 10.8093 21.4716 10.7736 21.6225 10.7324C21.5545 10.7833 21.4838 10.8306 21.4106 10.874C21.3134 10.9335 21.2394 11.0244 21.2008 11.1317C21.1621 11.2389 21.1612 11.3561 21.1981 11.464C21.235 11.5719 21.3075 11.664 21.4038 11.7251C21.5 11.7862 21.6142 11.8127 21.7275 11.8002L21.8981 11.7786C21.8042 11.856 21.7076 11.9301 21.6085 12.0008Z" fill="#FFFBFB"/>
</svg>
