<svg width="30" height="30" viewBox="0 0 30 30" fill="none" xmlns="http://www.w3.org/2000/svg">
<path fill-rule="evenodd" clip-rule="evenodd" d="M15 1.93125C7.43125 1.93125 1.30375 8.0275 1.30375 15.535C1.30375 21.0475 4.6075 25.7913 9.3625 27.925C9.86 28.1488 10.3463 28.06 10.7263 27.775C10.9364 27.6113 11.1058 27.4013 11.2212 27.1612C11.3365 26.9211 11.3948 26.6576 11.3912 26.3913V25.6787L9.695 25.4487C9.68244 25.4471 9.66993 25.445 9.6575 25.4425C8.7225 25.26 8.09125 24.9312 7.62875 24.4575C7.24 24.0588 7.0025 23.5813 6.80125 23.1763L6.73125 23.035C6.54524 22.647 6.34213 22.2675 6.1225 21.8975C5.95375 21.63 5.8225 21.4925 5.6925 21.4062C5.3625 21.1875 5.045 20.8162 5.045 20.3525C5.04387 20.219 5.07245 20.087 5.12866 19.9659C5.18487 19.8448 5.26731 19.7378 5.37 19.6525C5.56382 19.499 5.80537 19.4185 6.0525 19.425C6.33 19.425 6.59125 19.51 6.80875 19.6075C7.03125 19.7075 7.2525 19.84 7.45875 19.9775C7.96125 20.3125 8.45625 20.7087 8.875 21.1975C9.31125 21.705 9.62 22.0275 10.085 22.0938C10.4675 22.1487 10.8575 22.15 11.1613 22.1362C11.2035 21.8958 11.2731 21.6609 11.3688 21.4363C10.9978 21.3497 10.6318 21.2428 10.2725 21.1162C9.455 20.8263 8.54375 20.375 7.93125 19.6912C7.25875 18.9388 6.8425 18.2675 6.61 17.4825C6.38375 16.7175 6.34625 15.8888 6.34625 14.8688C6.34625 13.3063 7.0225 11.99 7.53 11.2913C7.33502 10.6795 7.19488 10.0516 7.11125 9.415C7.05586 9.01354 7.05628 8.60635 7.1125 8.205C7.175 7.83875 7.33125 7.38875 7.7425 7.1175C8.13875 6.85375 8.60375 6.865 8.96625 6.9325C9.3425 7.00375 9.73375 7.16 10.0938 7.33875C10.68 7.62875 11.2625 8.01625 11.6988 8.345C12.4513 8.12375 13.7825 7.83875 14.9862 7.8125H15.0138C16.2188 7.83875 17.49 8.12375 18.2238 8.34375C18.6613 8.01625 19.2425 7.6275 19.8275 7.33875C20.1875 7.16 20.5775 7.00375 20.955 6.9325C21.3175 6.865 21.7825 6.85375 22.18 7.11625C22.59 7.38875 22.7475 7.83875 22.8088 8.205C22.8725 8.58625 22.8575 9.0125 22.8088 9.415C22.7255 10.0516 22.5858 10.6794 22.3913 11.2913C22.8988 11.9913 23.575 13.3075 23.575 14.8688C23.575 15.8888 23.5375 16.7175 23.3125 17.4812C23.0787 18.2687 22.6625 18.9388 21.99 19.6912C21.3775 20.375 20.4662 20.8263 19.6488 21.1162C19.2148 21.2688 18.7714 21.3928 18.3212 21.4875C18.475 21.9525 18.53 22.3287 18.53 22.545V26.4075C18.53 26.995 18.8038 27.4963 19.1925 27.7888C19.57 28.075 20.055 28.1637 20.5525 27.9463C25.3525 25.8313 28.695 21.075 28.695 15.5338C28.695 8.0275 22.57 1.93125 15 1.93125ZM11.845 23.3875C11.52 23.4337 11.8438 23.3875 11.8438 23.3875H11.84L11.83 23.39L11.7938 23.395C11.6081 23.4168 11.4217 23.4322 11.235 23.4412C10.7901 23.4644 10.3441 23.4464 9.9025 23.3875C8.91375 23.2475 8.3125 22.5475 7.92375 22.0925L7.88625 22.05C7.75915 21.9026 7.62261 21.7635 7.4775 21.6337C7.60625 21.8712 7.74 22.1362 7.88375 22.4212L7.89625 22.4463L7.96 22.5763C8.17875 23.0113 8.3225 23.3012 8.56125 23.5437C8.79375 23.7812 9.15625 24.0113 9.88875 24.1562L12.1313 24.46C12.2879 24.4812 12.4315 24.5585 12.5354 24.6776C12.6393 24.7967 12.6965 24.9494 12.6962 25.1075V26.3913C12.6962 27.3913 12.2275 28.2825 11.5087 28.8225C11.1314 29.1108 10.6825 29.2907 10.2104 29.3427C9.73836 29.3947 9.26106 29.3168 8.83 29.1175C3.6275 26.7838 0 21.5875 0 15.535C0 7.295 6.72125 0.625 15 0.625C23.2787 0.625 30 7.295 30 15.535C30 21.6188 26.3263 26.8287 21.0788 29.1425C20.6473 29.338 20.1709 29.4126 19.7004 29.3582C19.2298 29.3038 18.7829 29.1225 18.4075 28.8337C18.0363 28.548 17.7363 28.1801 17.5312 27.7589C17.326 27.3377 17.2212 26.8747 17.225 26.4062V22.5438C17.225 22.4562 17.1637 21.9513 16.8225 21.2725C16.7754 21.1784 16.7517 21.0743 16.7533 20.9691C16.755 20.8638 16.782 20.7605 16.832 20.668C16.882 20.5754 16.9536 20.4962 17.0408 20.4371C17.1279 20.3781 17.228 20.3409 17.3325 20.3288C17.9733 20.2484 18.6037 20.0992 19.2125 19.8837C19.955 19.6213 20.6212 19.2612 21.0175 18.8188C21.6062 18.1613 21.9 17.6562 22.0613 17.11C22.2288 16.5437 22.2712 15.885 22.2712 14.8688C22.2712 13.4425 21.5212 12.2437 21.1763 11.8575C21.0979 11.7702 21.0445 11.6635 21.0217 11.5484C20.9988 11.4334 21.0073 11.3144 21.0462 11.2038C21.2684 10.574 21.4255 9.92306 21.515 9.26125C21.555 8.9175 21.5575 8.63 21.5225 8.4225C21.5147 8.34663 21.4917 8.2731 21.455 8.20625C21.3689 8.19136 21.2807 8.19519 21.1963 8.2175C20.9838 8.2575 20.7125 8.3575 20.405 8.51C19.7925 8.8125 19.155 9.26 18.76 9.58C18.6729 9.65067 18.569 9.6976 18.4584 9.71622C18.3477 9.73484 18.2342 9.72451 18.1287 9.68625C17.1167 9.35518 16.0639 9.16466 15 9.12C13.7413 9.15 12.2887 9.5075 11.7925 9.68625C11.6871 9.72451 11.5735 9.73484 11.4629 9.71622C11.3523 9.6976 11.2484 9.65067 11.1613 9.58C10.6504 9.16875 10.0993 8.81025 9.51625 8.51C9.26589 8.37853 8.99949 8.2802 8.72375 8.2175C8.63971 8.19537 8.5519 8.19154 8.46625 8.20625C8.42951 8.27309 8.40655 8.34663 8.39875 8.4225C8.36375 8.63 8.36625 8.9175 8.40625 9.26125C8.49633 9.92295 8.65339 10.5738 8.875 11.2038C8.95375 11.4288 8.905 11.6788 8.745 11.8575C8.4 12.2437 7.65 13.4425 7.65 14.8688C7.65 15.8838 7.6925 16.5437 7.86 17.11C8.0225 17.6562 8.315 18.16 8.9025 18.8188C9.3 19.2612 9.965 19.6213 10.7088 19.8837C11.3172 20.0991 11.9471 20.2483 12.5875 20.3288C12.7193 20.3429 12.8436 20.3968 12.9439 20.4833C13.0443 20.5699 13.1159 20.6849 13.1493 20.8131C13.1827 20.9414 13.1763 21.0767 13.1308 21.2012C13.0854 21.3257 13.0031 21.4334 12.895 21.51C12.6888 21.6575 12.5525 21.9225 12.4762 22.2288C12.4369 22.3864 12.4134 22.5476 12.4062 22.71V22.7337C12.4078 22.8922 12.3518 23.0459 12.2486 23.1662C12.1453 23.2864 12.0019 23.3651 11.845 23.3875Z" fill="white"/>
</svg>
