<svg width="869" height="869" viewBox="0 0 869 869" fill="none" xmlns="http://www.w3.org/2000/svg">
<g opacity="0.13">
<g opacity="0.89">
<path opacity="0.89" d="M434.5 866C672.811 866 866 672.811 866 434.5C866 196.189 672.811 3 434.5 3C196.189 3 3 196.189 3 434.5C3 672.811 196.189 866 434.5 866Z" stroke="white" stroke-width="4.33474" stroke-linecap="round" stroke-linejoin="round"/>
</g>
<g opacity="0.89">
<path opacity="0.89" d="M434.5 834.531C655.431 834.531 834.531 655.431 834.531 434.5C834.531 213.569 655.431 34.469 434.5 34.469C213.569 34.469 34.4691 213.569 34.4691 434.5C34.4691 655.431 213.569 834.531 434.5 834.531Z" stroke="white" stroke-width="5.06332" stroke-linecap="round" stroke-linejoin="round"/>
</g>
<g opacity="0.89">
<path opacity="0.89" d="M434.5 803.062C638.051 803.062 803.062 638.051 803.062 434.5C803.062 230.949 638.051 65.9381 434.5 65.9381C230.949 65.9381 65.9381 230.949 65.9381 434.5C65.9381 638.051 230.949 803.062 434.5 803.062Z" stroke="white" stroke-width="5.79191" stroke-linecap="round" stroke-linejoin="round"/>
</g>
<g opacity="0.89">
<path opacity="0.89" d="M434.5 771.593C620.671 771.593 771.593 620.671 771.593 434.5C771.593 248.329 620.671 97.4073 434.5 97.4073C248.329 97.4073 97.4072 248.329 97.4072 434.5C97.4072 620.671 248.329 771.593 434.5 771.593Z" stroke="white" stroke-width="6.5205" stroke-linecap="round" stroke-linejoin="round"/>
</g>
<g opacity="0.89">
<path opacity="0.89" d="M434.5 740.124C603.291 740.124 740.124 603.291 740.124 434.5C740.124 265.709 603.291 128.876 434.5 128.876C265.709 128.876 128.876 265.709 128.876 434.5C128.876 603.291 265.709 740.124 434.5 740.124Z" stroke="white" stroke-width="7.24909" stroke-linecap="round" stroke-linejoin="round"/>
</g>
<g opacity="0.89">
<path opacity="0.89" d="M434.5 708.654C585.911 708.654 708.655 585.911 708.655 434.5C708.655 283.089 585.911 160.345 434.5 160.345C283.089 160.345 160.345 283.089 160.345 434.5C160.345 585.911 283.089 708.654 434.5 708.654Z" stroke="white" stroke-width="7.97715" stroke-linecap="round" stroke-linejoin="round"/>
</g>
<g opacity="0.89">
<path opacity="0.89" d="M434.5 677.185C568.531 677.185 677.185 568.531 677.185 434.5C677.185 300.469 568.531 191.815 434.5 191.815C300.469 191.815 191.815 300.469 191.815 434.5C191.815 568.531 300.469 677.185 434.5 677.185Z" stroke="white" stroke-width="8.70574" stroke-linecap="round" stroke-linejoin="round"/>
</g>
<g opacity="0.89">
<path opacity="0.89" d="M434.5 645.716C551.152 645.716 645.716 551.152 645.716 434.5C645.716 317.848 551.152 223.284 434.5 223.284C317.848 223.284 223.284 317.848 223.284 434.5C223.284 551.152 317.848 645.716 434.5 645.716Z" stroke="white" stroke-width="9.43433" stroke-linecap="round" stroke-linejoin="round"/>
</g>
<g opacity="0.89">
<path opacity="0.89" d="M434.5 614.301C533.801 614.301 614.301 533.801 614.301 434.5C614.301 335.199 533.801 254.699 434.5 254.699C335.199 254.699 254.699 335.199 254.699 434.5C254.699 533.801 335.199 614.301 434.5 614.301Z" stroke="white" stroke-width="10.1629" stroke-linecap="round" stroke-linejoin="round"/>
</g>
<g opacity="0.89">
<path opacity="0.89" d="M434.5 582.831C516.421 582.831 582.831 516.421 582.831 434.5C582.831 352.579 516.421 286.169 434.5 286.169C352.579 286.169 286.169 352.579 286.169 434.5C286.169 516.421 352.579 582.831 434.5 582.831Z" stroke="white" stroke-width="10.8915" stroke-linecap="round" stroke-linejoin="round"/>
</g>
<g opacity="0.89">
<path opacity="0.89" d="M434.5 551.362C499.041 551.362 551.362 499.041 551.362 434.5C551.362 369.959 499.041 317.638 434.5 317.638C369.959 317.638 317.638 369.959 317.638 434.5C317.638 499.041 369.959 551.362 434.5 551.362Z" stroke="white" stroke-width="11.6201" stroke-linecap="round" stroke-linejoin="round"/>
</g>
<g opacity="0.89">
<path opacity="0.89" d="M434.5 519.893C481.661 519.893 519.893 481.661 519.893 434.5C519.893 387.339 481.661 349.107 434.5 349.107C387.339 349.107 349.107 387.339 349.107 434.5C349.107 481.661 387.339 519.893 434.5 519.893Z" stroke="white" stroke-width="12.3487" stroke-linecap="round" stroke-linejoin="round"/>
</g>
</g>
</svg>
